<svg width="41" height="40" viewBox="0 0 41 40" fill="none" xmlns="http://www.w3.org/2000/svg">
<path fill-rule="evenodd" clip-rule="evenodd" d="M17.1215 0.85942C19.2281 -0.286473 21.772 -0.286474 23.8786 0.85942L36.0914 7.50256C38.3669 8.74033 39.7834 11.1233 39.7834 13.7137V26.2863C39.7834 28.8767 38.3669 31.2597 36.0914 32.4974L23.8786 39.1406C21.772 40.2865 19.2281 40.2865 17.1215 39.1406L4.9087 32.4974C2.63318 31.2597 1.21667 28.8767 1.21667 26.2863L1.21667 13.7137C1.21667 11.1233 2.63318 8.74033 4.9087 7.50256L17.1215 0.85942Z" fill="#8DC351"/>
<g clip-path="url(#clip0)">
<path d="M20.5 36C29.3366 36 36.5 28.8366 36.5 20C36.5 11.1634 29.3366 4 20.5 4C11.6634 4 4.5 11.1634 4.5 20C4.5 28.8366 11.6634 36 20.5 36Z" fill="#8DC351"/>
<path d="M25.73 14.523C24.954 12.551 23.008 12.373 20.742 12.813L19.935 10L18.223 10.491L19.009 13.231C18.559 13.359 18.101 13.501 17.646 13.641L16.856 10.883L15.145 11.373L15.95 14.186C15.582 14.3 15.22 14.412 14.865 14.514L14.862 14.504L12.5 15.181L13.025 17.011C13.025 17.011 14.283 16.623 14.268 16.653C14.962 16.454 15.303 16.792 15.468 17.121L16.388 20.325C16.435 20.312 16.498 20.296 16.572 20.285L16.391 20.337L17.678 24.827C17.71 25.054 17.682 25.439 17.198 25.579C17.225 25.592 15.952 25.935 15.952 25.935L16.199 28.078L18.427 27.438C18.842 27.321 19.252 27.211 19.653 27.098L20.47 29.943L22.18 29.453L21.373 26.638C21.8317 26.5163 22.2891 26.3896 22.745 26.258L23.547 29.061L25.26 28.57L24.446 25.73C27.277 24.739 29.084 23.436 28.559 20.66C28.137 18.426 26.835 17.748 25.088 17.824C25.936 17.034 26.301 15.966 25.73 14.524V14.523ZM25.08 21.293C25.69 23.42 21.98 24.222 20.82 24.556L19.739 20.786C20.899 20.453 24.443 19.076 25.079 21.294L25.08 21.293ZM22.758 16.203C23.312 18.138 20.211 18.783 19.244 19.06L18.264 15.641C19.23 15.364 22.179 14.186 22.758 16.204V16.203Z" fill="white"/>
</g>
<defs>
<clipPath id="clip0">
<rect width="32" height="32" fill="white" transform="translate(4.5 4)"/>
</clipPath>
</defs>
</svg>
