<svg width="33" height="32" viewBox="0 0 33 32" fill="none" xmlns="http://www.w3.org/2000/svg">
<path fill-rule="evenodd" clip-rule="evenodd" d="M13.5832 0.687536C15.2685 -0.229179 17.3036 -0.229179 18.9889 0.687536L28.7592 6.00205C30.5796 6.99226 31.7128 8.89867 31.7128 10.971V21.029C31.7128 23.1013 30.5796 25.0077 28.7592 25.998L18.9889 31.3125C17.3036 32.2292 15.2685 32.2292 13.5832 31.3125L3.813 25.998C1.99258 25.0077 0.859375 23.1013 0.859375 21.029L0.859375 10.971C0.859375 8.89867 1.99258 6.99226 3.813 6.00205L13.5832 0.687536Z" fill="#C3A634"/>
<g clip-path="url(#clip0)">
<path d="M16.2863 28.8002C23.3556 28.8002 29.0863 23.0694 29.0863 16.0002C29.0863 8.93095 23.3556 3.2002 16.2863 3.2002C9.21708 3.2002 3.48633 8.93095 3.48633 16.0002C3.48633 23.0694 9.21708 28.8002 16.2863 28.8002Z" fill="#C3A634"/>
<path fill-rule="evenodd" clip-rule="evenodd" d="M14.0849 14.8886H17.5361V16.7174H14.0849V20.5718H16.2617C17.1233 20.5718 17.8281 20.4558 18.3769 20.2222C18.9257 19.9894 19.3561 19.667 19.6689 19.2542C19.9888 18.8249 20.2066 18.3283 20.3057 17.8022C20.4213 17.2087 20.4776 16.6052 20.4737 16.0006C20.4776 15.396 20.4213 14.7925 20.3057 14.199C20.2067 13.6728 19.9889 13.1762 19.6689 12.747C19.3561 12.3342 18.9249 12.0118 18.3769 11.779C17.8281 11.5454 17.1233 11.4294 16.2617 11.4294H14.0849V14.8894V14.8886ZM11.8721 16.7174H10.6865V14.8894H11.8721V9.60059H17.1113C18.0793 9.60059 18.9169 9.76859 19.6249 10.1022C20.3329 10.4374 20.9105 10.8942 21.3593 11.4742C21.8073 12.0534 22.1409 12.7318 22.3593 13.5086C22.5777 14.2854 22.6865 15.1166 22.6865 16.0006C22.692 16.8424 22.5816 17.6809 22.3585 18.4926C22.1409 19.2686 21.8073 19.9478 21.3585 20.527C20.9105 21.107 20.3329 21.5638 19.6249 21.899C18.9169 22.2334 18.0785 22.4006 17.1113 22.4006H11.8721V16.7174Z" fill="white"/>
</g>
<defs>
<clipPath id="clip0">
<rect width="25.6" height="25.6" fill="white" transform="translate(3.48633 3.2002)"/>
</clipPath>
</defs>
</svg>
