<svg width="41" height="40" viewBox="0 0 41 40" fill="none" xmlns="http://www.w3.org/2000/svg">
<path fill-rule="evenodd" clip-rule="evenodd" d="M17.1215 0.85942C19.2281 -0.286473 21.772 -0.286474 23.8786 0.85942L36.0914 7.50256C38.3669 8.74033 39.7834 11.1233 39.7834 13.7137V26.2863C39.7834 28.8767 38.3669 31.2597 36.0914 32.4974L23.8786 39.1406C21.772 40.2865 19.2281 40.2865 17.1215 39.1406L4.9087 32.4974C2.63318 31.2597 1.21667 28.8767 1.21667 26.2863L1.21667 13.7137C1.21667 11.1233 2.63318 8.74033 4.9087 7.50256L17.1215 0.85942Z" fill="#627EEA"/>
<g clip-path="url(#clip0)">
<path d="M20.5 36C29.3366 36 36.5 28.8366 36.5 20C36.5 11.1634 29.3366 4 20.5 4C11.6634 4 4.5 11.1634 4.5 20C4.5 28.8366 11.6634 36 20.5 36Z" fill="#627EEA"/>
<path d="M20.5 8V16.87L27.997 20.22L20.5 8Z" fill="white" fill-opacity="0.602"/>
<path d="M20.998 8L13.5 20.22L20.998 16.87V8Z" fill="white"/>
<path d="M20.5 26.352V32.379L28.002 22L20.5 26.352Z" fill="white" fill-opacity="0.602"/>
<path d="M20.998 32.379V26.351L13.5 22L20.998 32.379Z" fill="white"/>
<path d="M20.5 24.701L27.997 20.348L20.5 17V24.701Z" fill="white" fill-opacity="0.2"/>
<path d="M13.5 20.348L20.998 24.701V17L13.5 20.348Z" fill="white" fill-opacity="0.602"/>
</g>
<defs>
<clipPath id="clip0">
<rect width="32" height="32" fill="white" transform="translate(4.5 4)"/>
</clipPath>
</defs>
</svg>
