<svg width="33" height="32" viewBox="0 0 33 32" fill="none" xmlns="http://www.w3.org/2000/svg">
<path fill-rule="evenodd" clip-rule="evenodd" d="M13.5832 0.687536C15.2685 -0.229179 17.3036 -0.229179 18.9889 0.687536L28.7592 6.00205C30.5796 6.99226 31.7128 8.89867 31.7128 10.971V21.029C31.7128 23.1013 30.5796 25.0077 28.7592 25.998L18.9889 31.3125C17.3036 32.2292 15.2685 32.2292 13.5832 31.3125L3.813 25.998C1.99258 25.0077 0.859375 23.1013 0.859375 21.029L0.859375 10.971C0.859375 8.89867 1.99258 6.99226 3.813 6.00205L13.5832 0.687536Z" fill="#F05CAA"/>
<g clip-path="url(#clip0)">
<path d="M16.2863 28.8002C23.3556 28.8002 29.0863 23.0694 29.0863 16.0002C29.0863 8.93095 23.3556 3.2002 16.2863 3.2002C9.21708 3.2002 3.48633 8.93095 3.48633 16.0002C3.48633 23.0694 9.21708 28.8002 16.2863 28.8002Z" fill="#F05CAA"/>
<path d="M16.8751 8.7998C13.9095 8.7998 11.4863 11.2094 11.4863 14.1886C11.4863 14.7878 11.5855 15.3726 11.7711 15.9422C11.8368 16.1303 11.9737 16.285 12.1524 16.3731C12.331 16.4612 12.5371 16.4757 12.7263 16.4134C12.9142 16.3475 13.0688 16.2106 13.1568 16.0319C13.2447 15.8533 13.2591 15.6473 13.1967 15.4582C13.0403 15.0141 12.9679 14.5448 12.9831 14.0742C13.0399 12.0646 14.6655 10.4102 16.6759 10.311C17.2025 10.2833 17.7293 10.3631 18.2241 10.5454C18.7189 10.7277 19.1715 11.0088 19.5542 11.3715C19.937 11.7342 20.242 12.171 20.4506 12.6553C20.6593 13.1396 20.7672 13.6613 20.7679 14.1886C20.7667 15.1803 20.3868 16.1342 19.7057 16.8551C19.0247 17.576 18.094 18.0095 17.1039 18.067C17.1039 18.067 16.3479 18.1094 15.9775 18.167C15.7919 18.195 15.6495 18.2238 15.5495 18.2382C15.5063 18.2526 15.4639 18.2094 15.4775 18.1662L15.6063 17.5398L16.3047 14.3174C16.3454 14.1247 16.3084 13.9238 16.2018 13.7582C16.0951 13.5927 15.9274 13.476 15.7351 13.4334C15.5423 13.3927 15.3413 13.4298 15.1757 13.5367C15.0102 13.6435 14.8935 13.8114 14.8511 14.0038C14.8511 14.0038 13.1687 21.8454 13.1543 21.931C13.1136 22.1238 13.1508 22.3248 13.2576 22.4904C13.3644 22.656 13.5323 22.7726 13.7247 22.815C13.9175 22.8557 14.1186 22.8186 14.2841 22.7118C14.4497 22.6049 14.5664 22.437 14.6087 22.2446C14.6223 22.159 14.8511 21.1182 14.8511 21.1182C14.9321 20.7366 15.129 20.3893 15.4148 20.1239C15.7006 19.8584 16.0614 19.6876 16.4479 19.635C16.7276 19.6044 17.0079 19.5806 17.2887 19.5638C18.6423 19.4583 19.9064 18.8464 20.8287 17.85C21.751 16.8537 22.2638 15.5463 22.2647 14.1886C22.2647 11.2094 19.8407 8.7998 16.8751 8.7998ZM17.2599 21.2038C17.1438 21.1788 17.0239 21.177 16.9072 21.1986C16.7904 21.2203 16.6791 21.2649 16.5797 21.3298C16.4803 21.3948 16.3948 21.4788 16.3281 21.5771C16.2614 21.6753 16.2148 21.7858 16.1911 21.9022C16.0911 22.387 16.3911 22.8718 16.8895 22.9718C17.0057 22.9969 17.1258 22.9988 17.2427 22.9771C17.3596 22.9555 17.471 22.9109 17.5705 22.8458C17.67 22.7808 17.7556 22.6966 17.8223 22.5982C17.889 22.4998 17.9355 22.3891 17.9591 22.2726C18.0583 21.7742 17.7591 21.303 17.2599 21.2038Z" fill="white"/>
</g>
<defs>
<clipPath id="clip0">
<rect width="25.6" height="25.6" fill="white" transform="translate(3.48633 3.2002)"/>
</clipPath>
</defs>
</svg>
