<svg width="33" height="32" viewBox="0 0 33 32" fill="none" xmlns="http://www.w3.org/2000/svg">
<path fill-rule="evenodd" clip-rule="evenodd" d="M13.5832 0.687536C15.2685 -0.229179 17.3036 -0.229179 18.9889 0.687536L28.7592 6.00205C30.5796 6.99226 31.7128 8.89867 31.7128 10.971V21.029C31.7128 23.1013 30.5796 25.0077 28.7592 25.998L18.9889 31.3125C17.3036 32.2292 15.2685 32.2292 13.5832 31.3125L3.813 25.998C1.99258 25.0077 0.859375 23.1013 0.859375 21.029L0.859375 10.971C0.859375 8.89867 1.99258 6.99226 3.813 6.00205L13.5832 0.687536Z" fill="#26A17B"/>
<g clip-path="url(#clip0)">
<path d="M16.2863 28.8002C23.3556 28.8002 29.0863 23.0694 29.0863 16.0002C29.0863 8.93095 23.3556 3.2002 16.2863 3.2002C9.21708 3.2002 3.48633 8.93095 3.48633 16.0002C3.48633 23.0694 9.21708 28.8002 16.2863 28.8002Z" fill="#26A17B"/>
<path fill-rule="evenodd" clip-rule="evenodd" d="M17.5837 17.2518V17.2502C17.4957 17.2566 17.0421 17.2838 16.0301 17.2838C15.2221 17.2838 14.6533 17.2598 14.4533 17.2502V17.2526C11.3429 17.1158 9.02133 16.5742 9.02133 15.9262C9.02133 15.279 11.3429 14.7374 14.4533 14.5982V16.7134C14.6565 16.7278 15.2389 16.7622 16.0437 16.7622C17.0093 16.7622 17.4933 16.7222 17.5837 16.7142V14.5998C20.6877 14.7382 23.0037 15.2798 23.0037 15.9262C23.0037 16.5742 20.6877 17.1142 17.5837 17.2518ZM17.5837 14.3798V12.487H21.9149V9.60059H10.1221V12.487H14.4533V14.379C10.9333 14.5406 8.28613 15.2382 8.28613 16.0734C8.28613 16.9086 10.9333 17.6054 14.4533 17.7678V23.8334H17.5837V17.7662C21.0981 17.6046 23.7389 16.9078 23.7389 16.0734C23.7389 15.239 21.0981 14.5422 17.5837 14.3798Z" fill="white"/>
</g>
<defs>
<clipPath id="clip0">
<rect width="25.6" height="25.6" fill="white" transform="translate(3.48633 3.2002)"/>
</clipPath>
</defs>
</svg>
