<svg width="32" height="32" viewBox="0 0 32 32" fill="none" xmlns="http://www.w3.org/2000/svg">
<path fill-rule="evenodd" clip-rule="evenodd" d="M13.2981 0.687536C14.9834 -0.229179 17.0185 -0.229179 18.7038 0.687536L28.474 6.00205C30.2944 6.99226 31.4276 8.89867 31.4276 10.971V21.029C31.4276 23.1013 30.2944 25.0077 28.474 25.998L18.7038 31.3125C17.0185 32.2292 14.9834 32.2292 13.2981 31.3125L3.52784 25.998C1.70742 25.0077 0.574219 23.1013 0.574219 21.029L0.574219 10.971C0.574219 8.89867 1.70742 6.99226 3.52784 6.00205L13.2981 0.687536Z" fill="#EF0027"/>
<g clip-path="url(#clip0)">
<path d="M15.9992 28.8002C23.0685 28.8002 28.7992 23.0694 28.7992 16.0002C28.7992 8.93095 23.0685 3.2002 15.9992 3.2002C8.92997 3.2002 3.19922 8.93095 3.19922 16.0002C3.19922 23.0694 8.92997 28.8002 15.9992 28.8002Z" fill="#EF0027"/>
<path d="M20.3444 10.9246L8.79883 8.7998L14.8748 24.0894L23.3412 13.7742L20.3444 10.9246ZM20.1588 11.8606L21.9252 13.5398L17.0948 14.4142L20.1588 11.8606V11.8606ZM16.0452 14.239L10.954 10.0166L19.2756 11.5478L16.0452 14.239V14.239ZM15.6828 14.9862L14.8524 21.8502L10.3764 10.5838L15.6828 14.9854V14.9862ZM16.4508 15.3502L21.8004 14.3822L15.6644 21.8566L16.4508 15.3502Z" fill="white"/>
</g>
<defs>
<clipPath id="clip0">
<rect width="25.6" height="25.6" fill="white" transform="translate(3.19922 3.2002)"/>
</clipPath>
</defs>
</svg>
