<svg width="33" height="32" viewBox="0 0 33 32" fill="none" xmlns="http://www.w3.org/2000/svg">
<path fill-rule="evenodd" clip-rule="evenodd" d="M13.5832 0.687536C15.2685 -0.229179 17.3036 -0.229179 18.9889 0.687536L28.7592 6.00205C30.5796 6.99226 31.7128 8.89867 31.7128 10.971V21.029C31.7128 23.1013 30.5796 25.0077 28.7592 25.998L18.9889 31.3125C17.3036 32.2292 15.2685 32.2292 13.5832 31.3125L3.813 25.998C1.99258 25.0077 0.859375 23.1013 0.859375 21.029L0.859375 10.971C0.859375 8.89867 1.99258 6.99226 3.813 6.00205L13.5832 0.687536Z" fill="#2775C9"/>
<g clip-path="url(#clip0)">
<path d="M16.2863 28.8002C23.3556 28.8002 29.0863 23.0694 29.0863 16.0002C29.0863 8.93095 23.3556 3.2002 16.2863 3.2002C9.21708 3.2002 3.48633 8.93095 3.48633 16.0002C3.48633 23.0694 9.21708 28.8002 16.2863 28.8002Z" fill="#2775C9"/>
<path d="M16.0865 25.2004C10.8945 25.2004 6.68652 20.9924 6.68652 15.8004C6.68652 10.6084 10.8945 6.40039 16.0865 6.40039C21.2785 6.40039 25.4865 10.6084 25.4865 15.8004C25.4865 18.2934 24.4962 20.6844 22.7333 22.4472C20.9705 24.21 18.5796 25.2004 16.0865 25.2004ZM15.5265 12.3124C15.0122 12.3379 14.526 12.5547 14.1634 12.9203C13.8007 13.2859 13.5878 13.7739 13.5665 14.2884C13.5665 15.2564 14.1585 15.8884 15.4145 16.1524L16.2945 16.3604C17.1505 16.5604 17.5025 16.8484 17.5025 17.3364C17.5025 17.8244 16.8865 18.3044 16.0865 18.3044C15.8024 18.3304 15.5166 18.276 15.2619 18.1472C15.0073 18.0185 14.794 17.8207 14.6465 17.5764C14.6028 17.4837 14.5338 17.4052 14.4475 17.35C14.3612 17.2948 14.261 17.2652 14.1585 17.2644H13.6865C13.6502 17.2711 13.6156 17.2849 13.5847 17.3051C13.5538 17.3252 13.5271 17.3513 13.5063 17.3818C13.4855 17.4123 13.4709 17.4466 13.4634 17.4827C13.4559 17.5189 13.4556 17.5561 13.4625 17.5924C13.5775 18.0616 13.8448 18.4795 14.2226 18.7806C14.6005 19.0817 15.0675 19.249 15.5505 19.2564V19.9284C15.5505 20.078 15.6099 20.2214 15.7157 20.3272C15.8215 20.433 15.9649 20.4924 16.1145 20.4924C16.2641 20.4924 16.4076 20.433 16.5133 20.3272C16.6191 20.2214 16.6785 20.078 16.6785 19.9284V19.2484C17.2247 19.2422 17.747 19.023 18.134 18.6375C18.521 18.252 18.7422 17.7306 18.7505 17.1844C18.7505 16.1684 18.1665 15.5844 16.7825 15.2884L15.9825 15.1124C15.1825 14.9124 14.8065 14.6484 14.8065 14.2004C14.8065 13.7524 15.2865 13.2564 16.0865 13.2564C16.3385 13.2301 16.5927 13.2773 16.8184 13.3922C17.0441 13.5072 17.2317 13.6851 17.3585 13.9044C17.4099 14.0139 17.4913 14.1066 17.5933 14.1717C17.6952 14.2369 17.8135 14.2718 17.9345 14.2724H18.3105C18.396 14.2515 18.4699 14.1979 18.5163 14.1231C18.5626 14.0483 18.5778 13.9583 18.5585 13.8724C18.4501 13.4391 18.2077 13.0512 17.8658 12.7639C17.5239 12.4765 17.1 12.3045 16.6545 12.2724V11.7204C16.6545 11.5708 16.5951 11.4274 16.4893 11.3216C16.3836 11.2158 16.2401 11.1564 16.0905 11.1564C15.9409 11.1564 15.7975 11.2158 15.6917 11.3216C15.5859 11.4274 15.5265 11.5708 15.5265 11.7204V12.3124ZM9.03852 15.8004C9.03944 17.274 9.5033 18.7102 10.3646 19.9059C11.2259 21.1017 12.4411 21.9966 13.8385 22.4644H13.9505C14.046 22.4644 14.1376 22.4265 14.2051 22.3589C14.2726 22.2914 14.3105 22.1999 14.3105 22.1044V21.9364C14.3108 21.7875 14.2668 21.6418 14.1842 21.5179C14.1016 21.394 13.9841 21.2974 13.8465 21.2404C12.7582 20.8011 11.826 20.0466 11.1696 19.0737C10.5131 18.1009 10.1624 16.954 10.1624 15.7804C10.1624 14.6068 10.5131 13.4599 11.1696 12.487C11.826 11.5142 12.7582 10.7597 13.8465 10.3204C13.9835 10.2648 14.1007 10.1696 14.1834 10.0471C14.266 9.92456 14.3103 9.78019 14.3105 9.63239V9.44839C14.311 9.39437 14.2985 9.34101 14.274 9.29286C14.2495 9.2447 14.2138 9.20316 14.1698 9.17175C14.1259 9.14035 14.075 9.12001 14.0215 9.11246C13.968 9.10492 13.9135 9.11038 13.8625 9.12839C12.4593 9.59246 11.238 10.4869 10.372 11.6846C9.50602 12.8823 9.03944 14.3224 9.03852 15.8004ZM23.1345 15.8004C23.1319 14.3281 22.6673 12.8938 21.8061 11.6996C20.9449 10.5054 19.7307 9.6117 18.3345 9.14439H18.2145C18.1148 9.14439 18.0192 9.184 17.9487 9.25452C17.8781 9.32503 17.8385 9.42067 17.8385 9.52039V9.64039C17.8418 9.79469 17.8895 9.94475 17.9761 10.0725C18.0627 10.2003 18.1844 10.3002 18.3265 10.3604C19.4124 10.801 20.342 11.5555 20.9966 12.5275C21.6511 13.4994 22.0008 14.6446 22.0008 15.8164C22.0008 16.9882 21.6511 18.1334 20.9966 19.1053C20.342 20.0773 19.4124 20.8318 18.3265 21.2724C18.1871 21.3332 18.0679 21.4324 17.9829 21.5585C17.8979 21.6846 17.8506 21.8324 17.8465 21.9844V22.1204C17.8472 22.1797 17.8619 22.238 17.8894 22.2905C17.917 22.3431 17.9565 22.3884 18.0049 22.4227C18.0533 22.457 18.1091 22.4794 18.1677 22.4881C18.2264 22.4967 18.2863 22.4913 18.3425 22.4724C19.7398 22.0028 20.9541 21.1061 21.814 19.9089C22.6739 18.7116 23.1358 17.2744 23.1345 15.8004Z" fill="white"/>
</g>
<defs>
<clipPath id="clip0">
<rect width="25.6" height="25.6" fill="white" transform="translate(3.48633 3.2002)"/>
</clipPath>
</defs>
</svg>
