<svg width="137" height="32" viewBox="0 0 137 32" fill="none" xmlns="http://www.w3.org/2000/svg">
<path fill-rule="evenodd" clip-rule="evenodd" d="M13.2971 0.687536C14.9824 -0.229179 17.0175 -0.229179 18.7028 0.687536L28.473 6.00205C30.2935 6.99226 31.4267 8.89867 31.4267 10.971V21.029C31.4267 23.1013 30.2935 25.0077 28.473 25.998L18.7028 31.3125C17.0175 32.2292 14.9824 32.2292 13.2971 31.3125L3.52687 25.998C1.70645 25.0077 0.573242 23.1013 0.573242 21.029L0.573242 10.971C0.573242 8.89867 1.70645 6.99226 3.52686 6.00205L13.2971 0.687536Z" fill="#3772FF"/>
<g filter="url(#filter0_d)">
<path fill-rule="evenodd" clip-rule="evenodd" d="M18.8612 21.6654C22.5431 21.6654 25.5278 18.6806 25.5278 14.9987C25.5278 11.3168 22.5431 8.33203 18.8612 8.33203C16.0446 8.33203 13.636 10.0787 12.6594 12.5479C12.1871 12.3877 11.6809 12.3008 11.1544 12.3008C8.56848 12.3008 6.47217 14.3971 6.47217 16.983C6.47217 19.5689 8.56848 21.6652 11.1544 21.6652H11.1547L11.1544 21.6654H17.9896C18.0908 21.6654 18.1911 21.6572 18.2896 21.6412C18.478 21.6572 18.6686 21.6654 18.8612 21.6654ZM14.63 20.1509C14.6248 20.1465 14.6195 20.1422 14.6143 20.1378C14.6041 20.149 14.5939 20.16 14.5837 20.1711L14.63 20.1509Z" fill="url(#paint0_linear)"/>
</g>
<path d="M13.536 1.12676C15.0724 0.291079 16.9275 0.291079 18.4639 1.12676L28.2341 6.44127C29.8936 7.34396 30.9267 9.08185 30.9267 10.971V21.029C30.9267 22.9182 29.8936 24.656 28.2341 25.5587L18.4639 30.8732C16.9275 31.7089 15.0724 31.7089 13.536 30.8732L3.76578 25.5587C2.10628 24.656 1.07324 22.9182 1.07324 21.029V10.971C1.07324 9.08185 2.10628 7.34396 3.76578 6.44127L13.536 1.12676Z" stroke="url(#paint1_linear)"/>
<path d="M50.992 15.264C52.016 15.472 52.832 15.96 53.44 16.728C54.064 17.48 54.376 18.368 54.376 19.392C54.376 20.816 53.896 21.944 52.936 22.776C51.992 23.592 50.616 24 48.808 24H41.536V7.056H48.664C50.376 7.056 51.688 7.432 52.6 8.184C53.528 8.936 53.992 9.992 53.992 11.352C53.992 12.408 53.712 13.272 53.152 13.944C52.608 14.616 51.888 15.056 50.992 15.264ZM44.92 14.16H47.968C48.816 14.16 49.456 13.976 49.888 13.608C50.336 13.224 50.56 12.68 50.56 11.976C50.56 11.272 50.344 10.728 49.912 10.344C49.48 9.96 48.816 9.768 47.92 9.768H44.92V14.16ZM48.136 21.24C49.032 21.24 49.72 21.048 50.2 20.664C50.68 20.264 50.92 19.688 50.92 18.936C50.92 18.184 50.672 17.608 50.176 17.208C49.696 16.792 49.008 16.584 48.112 16.584H44.92V21.24H48.136ZM55.8829 6.888C55.8829 6.344 56.0749 5.904 56.4589 5.568C56.8429 5.216 57.3469 5.04 57.9709 5.04C58.5949 5.04 59.0989 5.216 59.4829 5.568C59.8669 5.904 60.0589 6.344 60.0589 6.888C60.0589 7.416 59.8669 7.856 59.4829 8.208C59.0989 8.544 58.5949 8.712 57.9709 8.712C57.3469 8.712 56.8429 8.544 56.4589 8.208C56.0749 7.856 55.8829 7.416 55.8829 6.888ZM59.6509 10.704V24H56.2669V10.704H59.6509ZM69.3363 21.096V24H67.5603C66.0723 24 64.9283 23.64 64.1283 22.92C63.3443 22.2 62.9523 21 62.9523 19.32V13.56H61.1043V10.704H62.9523V7.416H66.3363V10.704H69.3123V13.56H66.3363V19.368C66.3363 20.008 66.4643 20.456 66.7203 20.712C66.9763 20.968 67.4083 21.096 68.0163 21.096H69.3363ZM77.2673 10.536C78.9793 10.536 80.4033 11 81.5393 11.928C82.6913 12.856 83.4113 14.12 83.6993 15.72H80.1233C79.9793 15.016 79.6513 14.464 79.1393 14.064C78.6273 13.648 77.9793 13.44 77.1953 13.44C76.2993 13.44 75.5473 13.776 74.9393 14.448C74.3473 15.104 74.0513 16.072 74.0513 17.352C74.0513 18.632 74.3473 19.608 74.9393 20.28C75.5473 20.936 76.2993 21.264 77.1953 21.264C77.9793 21.264 78.6273 21.064 79.1393 20.664C79.6513 20.248 79.9793 19.688 80.1233 18.984H83.6993C83.4113 20.584 82.6913 21.848 81.5393 22.776C80.4033 23.704 78.9793 24.168 77.2673 24.168C75.9713 24.168 74.8193 23.896 73.8113 23.352C72.8033 22.792 72.0193 22 71.4593 20.976C70.8993 19.952 70.6193 18.744 70.6193 17.352C70.6193 15.96 70.8993 14.752 71.4593 13.728C72.0193 12.688 72.8033 11.896 73.8113 11.352C74.8193 10.808 75.9713 10.536 77.2673 10.536ZM89.0078 6.24V24H85.6238V6.24H89.0078ZM97.7331 10.536C99.0291 10.536 100.189 10.808 101.213 11.352C102.253 11.896 103.069 12.688 103.661 13.728C104.253 14.752 104.549 15.96 104.549 17.352C104.549 18.744 104.253 19.952 103.661 20.976C103.069 22 102.253 22.792 101.213 23.352C100.189 23.896 99.0291 24.168 97.7331 24.168C96.4371 24.168 95.2691 23.896 94.2291 23.352C93.2051 22.792 92.3971 22 91.8051 20.976C91.2131 19.952 90.9171 18.744 90.9171 17.352C90.9171 15.96 91.2131 14.752 91.8051 13.728C92.3971 12.688 93.2051 11.896 94.2291 11.352C95.2691 10.808 96.4371 10.536 97.7331 10.536ZM97.7331 13.464C96.7891 13.464 95.9891 13.8 95.3331 14.472C94.6771 15.128 94.3491 16.088 94.3491 17.352C94.3491 18.616 94.6771 19.584 95.3331 20.256C95.9891 20.912 96.7891 21.24 97.7331 21.24C98.6771 21.24 99.4771 20.912 100.133 20.256C100.789 19.584 101.117 18.616 101.117 17.352C101.117 16.088 100.789 15.128 100.133 14.472C99.4771 13.8 98.6771 13.464 97.7331 13.464ZM119.181 10.704V24H115.797V21.312C115.445 22.208 114.861 22.912 114.045 23.424C113.245 23.92 112.317 24.168 111.261 24.168C109.725 24.168 108.501 23.664 107.589 22.656C106.677 21.648 106.221 20.24 106.221 18.432V10.704H109.581V18.048C109.581 19.104 109.853 19.928 110.397 20.52C110.941 21.096 111.677 21.384 112.605 21.384C113.581 21.384 114.357 21.072 114.933 20.448C115.509 19.824 115.797 18.928 115.797 17.76V10.704H119.181ZM126.986 10.536C128.106 10.536 129.058 10.8 129.842 11.328C130.642 11.856 131.218 12.568 131.57 13.464V6.24H134.93V24H131.57V21.216C131.218 22.112 130.642 22.832 129.842 23.376C129.058 23.904 128.106 24.168 126.986 24.168C125.866 24.168 124.858 23.896 123.962 23.352C123.066 22.808 122.362 22.024 121.85 21C121.354 19.96 121.106 18.744 121.106 17.352C121.106 15.96 121.354 14.752 121.85 13.728C122.362 12.688 123.066 11.896 123.962 11.352C124.858 10.808 125.866 10.536 126.986 10.536ZM128.042 13.488C126.986 13.488 126.138 13.832 125.498 14.52C124.858 15.208 124.538 16.152 124.538 17.352C124.538 18.552 124.858 19.496 125.498 20.184C126.138 20.856 126.986 21.192 128.042 21.192C129.066 21.192 129.906 20.848 130.562 20.16C131.234 19.456 131.57 18.52 131.57 17.352C131.57 16.168 131.234 15.232 130.562 14.544C129.906 13.84 129.066 13.488 128.042 13.488Z" fill="#23262F"/>
<defs>
<filter id="filter0_d" x="2.47217" y="6.33203" width="27.0557" height="21.3334" filterUnits="userSpaceOnUse" color-interpolation-filters="sRGB">
<feFlood flood-opacity="0" result="BackgroundImageFix"/>
<feColorMatrix in="SourceAlpha" type="matrix" values="0 0 0 0 0 0 0 0 0 0 0 0 0 0 0 0 0 0 127 0" result="hardAlpha"/>
<feOffset dy="2"/>
<feGaussianBlur stdDeviation="2"/>
<feColorMatrix type="matrix" values="0 0 0 0 0 0 0 0 0 0 0 0 0 0 0 0 0 0 0.15 0"/>
<feBlend mode="normal" in2="BackgroundImageFix" result="effect1_dropShadow"/>
<feBlend mode="normal" in="SourceGraphic" in2="effect1_dropShadow" result="shape"/>
</filter>
<linearGradient id="paint0_linear" x1="21.6875" y1="9.12354" x2="13.625" y2="21.6654" gradientUnits="userSpaceOnUse">
<stop stop-color="white"/>
<stop offset="1" stop-color="#FCFCFD" stop-opacity="0.75"/>
</linearGradient>
<linearGradient id="paint1_linear" x1="16" y1="0" x2="16" y2="32" gradientUnits="userSpaceOnUse">
<stop stop-color="#7EA4FF" stop-opacity="0.27"/>
<stop offset="1" stop-color="#1448C4" stop-opacity="0.42"/>
</linearGradient>
</defs>
</svg>
