<svg width="140" height="32" viewBox="0 0 140 32" fill="none" xmlns="http://www.w3.org/2000/svg">
<path fill-rule="evenodd" clip-rule="evenodd" d="M13.2971 0.687536C14.9824 -0.229179 17.0175 -0.229179 18.7028 0.687536L28.473 6.00205C30.2935 6.99226 31.4267 8.89867 31.4267 10.971V21.029C31.4267 23.1013 30.2935 25.0077 28.473 25.998L18.7028 31.3125C17.0175 32.2292 14.9824 32.2292 13.2971 31.3125L3.52687 25.998C1.70645 25.0077 0.573242 23.1013 0.573242 21.029L0.573242 10.971C0.573242 8.89867 1.70645 6.99226 3.52686 6.00205L13.2971 0.687536Z" fill="#3772FF"/>
<g filter="url(#filter0_d)">
<path fill-rule="evenodd" clip-rule="evenodd" d="M18.8612 21.6654C22.5431 21.6654 25.5278 18.6806 25.5278 14.9987C25.5278 11.3168 22.5431 8.33203 18.8612 8.33203C16.0446 8.33203 13.636 10.0787 12.6594 12.5479C12.1871 12.3877 11.6809 12.3008 11.1544 12.3008C8.56848 12.3008 6.47217 14.3971 6.47217 16.983C6.47217 19.5689 8.56848 21.6652 11.1544 21.6652H11.1547L11.1544 21.6654H17.9896C18.0908 21.6654 18.1911 21.6572 18.2896 21.6412C18.478 21.6572 18.6686 21.6654 18.8612 21.6654ZM14.63 20.1509C14.6248 20.1465 14.6195 20.1422 14.6143 20.1378C14.6041 20.149 14.5939 20.16 14.5837 20.1711L14.63 20.1509Z" fill="url(#paint0_linear)"/>
</g>
<path d="M13.536 1.12676C15.0724 0.291079 16.9275 0.291079 18.4639 1.12676L28.2341 6.44127C29.8936 7.34396 30.9267 9.08185 30.9267 10.971V21.029C30.9267 22.9182 29.8936 24.656 28.2341 25.5587L18.4639 30.8732C16.9275 31.7089 15.0724 31.7089 13.536 30.8732L3.76578 25.5587C2.10628 24.656 1.07324 22.9182 1.07324 21.029V10.971C1.07324 9.08185 2.10628 7.34396 3.76578 6.44127L13.536 1.12676Z" stroke="url(#paint1_linear)"/>
<path d="M50.992 15.264C52.016 15.472 52.832 15.96 53.44 16.728C54.064 17.48 54.376 18.368 54.376 19.392C54.376 20.816 53.896 21.944 52.936 22.776C51.992 23.592 50.616 24 48.808 24H41.536V7.056H48.664C50.376 7.056 51.688 7.432 52.6 8.184C53.528 8.936 53.992 9.992 53.992 11.352C53.992 12.408 53.712 13.272 53.152 13.944C52.608 14.616 51.888 15.056 50.992 15.264ZM44.92 14.16H47.968C48.816 14.16 49.456 13.976 49.888 13.608C50.336 13.224 50.56 12.68 50.56 11.976C50.56 11.272 50.344 10.728 49.912 10.344C49.48 9.96 48.816 9.768 47.92 9.768H44.92V14.16ZM48.136 21.24C49.032 21.24 49.72 21.048 50.2 20.664C50.68 20.264 50.92 19.688 50.92 18.936C50.92 18.184 50.672 17.608 50.176 17.208C49.696 16.792 49.008 16.584 48.112 16.584H44.92V21.24H48.136ZM55.8829 6.888C55.8829 6.344 56.0749 5.904 56.4589 5.568C56.8429 5.216 57.3469 5.04 57.9709 5.04C58.5949 5.04 59.0989 5.216 59.4829 5.568C59.8669 5.904 60.0589 6.344 60.0589 6.888C60.0589 7.416 59.8669 7.856 59.4829 8.208C59.0989 8.544 58.5949 8.712 57.9709 8.712C57.3469 8.712 56.8429 8.544 56.4589 8.208C56.0749 7.856 55.8829 7.416 55.8829 6.888ZM59.6509 10.704V24H56.2669V10.704H59.6509ZM69.3363 21.096V24H67.5603C66.0723 24 64.9283 23.64 64.1283 22.92C63.3443 22.2 62.9523 21 62.9523 19.32V13.56H61.1043V10.704H62.9523V7.416H66.3363V10.704H69.3123V13.56H66.3363V19.368C66.3363 20.008 66.4643 20.456 66.7203 20.712C66.9763 20.968 67.4083 21.096 68.0163 21.096H69.3363ZM78.9473 6.888C81.0593 6.888 82.8113 7.432 84.2033 8.52C85.5953 9.608 86.5153 11.088 86.9633 12.96H83.4113C83.0433 12.048 82.4673 11.328 81.6833 10.8C80.9153 10.272 79.9873 10.008 78.8993 10.008C78.0033 10.008 77.1953 10.232 76.4753 10.68C75.7553 11.128 75.1953 11.768 74.7953 12.6C74.3953 13.432 74.1953 14.408 74.1953 15.528C74.1953 16.632 74.3953 17.6 74.7953 18.432C75.1953 19.264 75.7553 19.904 76.4753 20.352C77.1953 20.8 78.0033 21.024 78.8993 21.024C79.9873 21.024 80.9153 20.76 81.6833 20.232C82.4673 19.704 83.0433 18.984 83.4113 18.072H86.9633C86.5153 19.944 85.5953 21.424 84.2033 22.512C82.8113 23.6 81.0593 24.144 78.9473 24.144C77.3313 24.144 75.8993 23.784 74.6513 23.064C73.4193 22.328 72.4593 21.304 71.7713 19.992C71.0993 18.68 70.7633 17.192 70.7633 15.528C70.7633 13.848 71.0993 12.352 71.7713 11.04C72.4593 9.728 73.4193 8.712 74.6513 7.992C75.8833 7.256 77.3153 6.888 78.9473 6.888ZM92.4063 6.24V24H89.0223V6.24H92.4063ZM101.132 10.536C102.428 10.536 103.588 10.808 104.612 11.352C105.652 11.896 106.468 12.688 107.06 13.728C107.652 14.752 107.948 15.96 107.948 17.352C107.948 18.744 107.652 19.952 107.06 20.976C106.468 22 105.652 22.792 104.612 23.352C103.588 23.896 102.428 24.168 101.132 24.168C99.8356 24.168 98.6676 23.896 97.6276 23.352C96.6036 22.792 95.7956 22 95.2036 20.976C94.6116 19.952 94.3156 18.744 94.3156 17.352C94.3156 15.96 94.6116 14.752 95.2036 13.728C95.7956 12.688 96.6036 11.896 97.6276 11.352C98.6676 10.808 99.8356 10.536 101.132 10.536ZM101.132 13.464C100.188 13.464 99.3876 13.8 98.7316 14.472C98.0756 15.128 97.7476 16.088 97.7476 17.352C97.7476 18.616 98.0756 19.584 98.7316 20.256C99.3876 20.912 100.188 21.24 101.132 21.24C102.076 21.24 102.876 20.912 103.532 20.256C104.188 19.584 104.516 18.616 104.516 17.352C104.516 16.088 104.188 15.128 103.532 14.472C102.876 13.8 102.076 13.464 101.132 13.464ZM122.579 10.704V24H119.195V21.312C118.843 22.208 118.259 22.912 117.443 23.424C116.643 23.92 115.715 24.168 114.659 24.168C113.123 24.168 111.899 23.664 110.987 22.656C110.075 21.648 109.619 20.24 109.619 18.432V10.704H112.979V18.048C112.979 19.104 113.251 19.928 113.795 20.52C114.339 21.096 115.075 21.384 116.003 21.384C116.979 21.384 117.755 21.072 118.331 20.448C118.907 19.824 119.195 18.928 119.195 17.76V10.704H122.579ZM130.384 10.536C131.504 10.536 132.456 10.8 133.24 11.328C134.04 11.856 134.616 12.568 134.968 13.464V6.24H138.328V24H134.968V21.216C134.616 22.112 134.04 22.832 133.24 23.376C132.456 23.904 131.504 24.168 130.384 24.168C129.264 24.168 128.256 23.896 127.36 23.352C126.464 22.808 125.76 22.024 125.248 21C124.752 19.96 124.504 18.744 124.504 17.352C124.504 15.96 124.752 14.752 125.248 13.728C125.76 12.688 126.464 11.896 127.36 11.352C128.256 10.808 129.264 10.536 130.384 10.536ZM131.44 13.488C130.384 13.488 129.536 13.832 128.896 14.52C128.256 15.208 127.936 16.152 127.936 17.352C127.936 18.552 128.256 19.496 128.896 20.184C129.536 20.856 130.384 21.192 131.44 21.192C132.464 21.192 133.304 20.848 133.96 20.16C134.632 19.456 134.968 18.52 134.968 17.352C134.968 16.168 134.632 15.232 133.96 14.544C133.304 13.84 132.464 13.488 131.44 13.488Z" fill="#F4F5F6"/>
<defs>
<filter id="filter0_d" x="2.47217" y="6.33203" width="27.0557" height="21.3334" filterUnits="userSpaceOnUse" color-interpolation-filters="sRGB">
<feFlood flood-opacity="0" result="BackgroundImageFix"/>
<feColorMatrix in="SourceAlpha" type="matrix" values="0 0 0 0 0 0 0 0 0 0 0 0 0 0 0 0 0 0 127 0" result="hardAlpha"/>
<feOffset dy="2"/>
<feGaussianBlur stdDeviation="2"/>
<feColorMatrix type="matrix" values="0 0 0 0 0 0 0 0 0 0 0 0 0 0 0 0 0 0 0.15 0"/>
<feBlend mode="normal" in2="BackgroundImageFix" result="effect1_dropShadow"/>
<feBlend mode="normal" in="SourceGraphic" in2="effect1_dropShadow" result="shape"/>
</filter>
<linearGradient id="paint0_linear" x1="21.6875" y1="9.12354" x2="13.625" y2="21.6654" gradientUnits="userSpaceOnUse">
<stop stop-color="white"/>
<stop offset="1" stop-color="#FCFCFD" stop-opacity="0.75"/>
</linearGradient>
<linearGradient id="paint1_linear" x1="16" y1="0" x2="16" y2="32" gradientUnits="userSpaceOnUse">
<stop stop-color="#7EA4FF" stop-opacity="0.27"/>
<stop offset="1" stop-color="#1448C4" stop-opacity="0.42"/>
</linearGradient>
</defs>
</svg>
