<svg width="33" height="32" viewBox="0 0 33 32" fill="none" xmlns="http://www.w3.org/2000/svg">
<path fill-rule="evenodd" clip-rule="evenodd" d="M13.5832 0.687536C15.2685 -0.229179 17.3036 -0.229179 18.9889 0.687536L28.7592 6.00205C30.5796 6.99226 31.7128 8.89867 31.7128 10.971V21.029C31.7128 23.1013 30.5796 25.0077 28.7592 25.998L18.9889 31.3125C17.3036 32.2292 15.2685 32.2292 13.5832 31.3125L3.813 25.998C1.99258 25.0077 0.859375 23.1013 0.859375 21.029L0.859375 10.971C0.859375 8.89867 1.99258 6.99226 3.813 6.00205L13.5832 0.687536Z" fill="#7C6BE0"/>
<g clip-path="url(#clip0)">
<path d="M16.2863 28.8002C23.3556 28.8002 29.0863 23.0694 29.0863 16.0002C29.0863 8.93095 23.3556 3.2002 16.2863 3.2002C9.21708 3.2002 3.48633 8.93095 3.48633 16.0002C3.48633 23.0694 9.21708 28.8002 16.2863 28.8002Z" fill="#7C6BE0"/>
<g filter="url(#filter0_d)">
<path d="M16.066 8.04864C16.4492 7.85104 16.9172 8.30784 16.714 8.68464C16.5948 8.99184 16.146 9.07344 15.9172 8.83904C15.6748 8.61504 15.754 8.17024 16.066 8.04784V8.04864ZM11.942 8.48544C12.1748 8.39104 12.47 8.60064 12.446 8.85104C12.47 9.12144 12.134 9.32144 11.8964 9.19264C11.582 9.07264 11.618 8.57024 11.942 8.48544ZM20.3884 9.19984C20.0244 9.15664 19.9668 8.59344 20.3164 8.47984C20.5884 8.35024 20.838 8.59424 20.878 8.84784C20.8204 9.06384 20.6364 9.26224 20.3884 9.19984ZM12.8804 10.2118C13.27 9.96944 13.8252 10.3302 13.7652 10.7758C13.7452 11.2246 13.1388 11.4854 12.7964 11.1814C12.4652 10.943 12.5156 10.3958 12.8804 10.2118ZM18.8244 10.4694C18.998 10.0294 19.702 10.015 19.8996 10.4438C20.0956 10.7774 19.8548 11.191 19.5068 11.3046C19.0452 11.3894 18.6076 10.8982 18.8244 10.4694ZM15.5692 11.2798C15.5652 10.9006 15.9156 10.619 16.2812 10.5926C16.5244 10.6406 16.7884 10.7422 16.8924 10.983C17.0868 11.3158 16.914 11.7726 16.5644 11.9254C16.4044 12.0134 16.214 11.9806 16.0396 11.9702C15.7732 11.8422 15.5484 11.5886 15.5692 11.2798ZM9.43637 11.8318C9.79237 11.6158 10.2724 12.0078 10.1372 12.3886C10.0636 12.7174 9.61397 12.851 9.35717 12.6414C9.08277 12.4446 9.12597 11.9718 9.43717 11.831L9.43637 11.8318ZM22.606 11.8302C22.9076 11.5998 23.406 11.8646 23.3692 12.239C23.39 12.5806 22.9588 12.839 22.6596 12.663C22.33 12.5166 22.2956 12.0174 22.606 11.831V11.8302ZM17.294 12.511C17.7916 12.335 18.3836 12.5454 18.6668 12.983C19.0412 13.5166 18.8428 14.3294 18.2612 14.6358C17.6596 14.9982 16.7804 14.6918 16.5572 14.0294C16.3052 13.4374 16.6732 12.6966 17.2932 12.511H17.294ZM14.3716 12.5694C14.9236 12.3134 15.6668 12.5278 15.9332 13.083C16.2468 13.6238 16.0044 14.3766 15.4436 14.6558C14.882 14.9702 14.0892 14.7318 13.818 14.1518C13.5132 13.5902 13.7836 12.8278 14.3716 12.5694ZM11.446 13.5526C11.4884 13.203 11.8236 12.975 12.162 12.951C12.3385 12.9697 12.5034 13.0476 12.6298 13.1722C12.7562 13.2967 12.8367 13.4605 12.858 13.6366C12.834 13.9966 12.5516 14.347 12.1644 14.3454C11.738 14.3814 11.3644 13.9638 11.446 13.5526ZM20.0876 13.0278C20.5252 12.7774 21.1324 13.1414 21.1132 13.6358C21.1428 14.1598 20.4708 14.5286 20.0356 14.2214C19.5828 13.9654 19.618 13.2454 20.0876 13.0278ZM13.1836 14.8734C13.694 14.735 14.2796 14.9718 14.53 15.4342C14.8044 15.8998 14.6924 16.5462 14.266 16.8886C13.718 17.3894 12.7092 17.1878 12.418 16.5046C12.0828 15.8782 12.49 15.0382 13.1828 14.8726L13.1836 14.8734ZM18.7252 14.871C19.222 14.731 19.806 14.919 20.0732 15.3646C20.4268 15.8742 20.258 16.635 19.7324 16.963C19.1804 17.3446 18.3276 17.1446 18.0236 16.5478C17.6556 15.931 18.026 15.059 18.7252 14.871ZM9.89317 15.4518C10.3348 15.2878 10.8244 15.767 10.6452 16.1982C10.5364 16.5902 9.97397 16.7358 9.68357 16.4462C9.34357 16.1742 9.46917 15.5702 9.89317 15.4518ZM21.8684 16.0774C21.8601 15.9013 21.9217 15.7291 22.0397 15.5981C22.1578 15.4672 22.3228 15.3882 22.4988 15.3782C22.8012 15.4262 23.0956 15.6662 23.0716 15.9902C23.0996 16.4182 22.5756 16.7086 22.2044 16.5078C22.0308 16.4206 21.942 16.2454 21.8684 16.0774ZM7.72117 15.6646C7.98677 15.5502 8.31557 15.7766 8.25477 16.067C8.24037 16.3958 7.74677 16.523 7.56597 16.2478C7.40597 16.0566 7.50197 15.763 7.72117 15.6638V15.6646ZM24.4804 15.6574C24.6676 15.527 24.9684 15.6206 25.042 15.8358C25.1676 16.071 24.9372 16.3926 24.6684 16.3534C24.2908 16.387 24.1692 15.8214 24.4804 15.6574ZM14.6268 17.2358C15.326 17.0574 16.078 17.631 16.0828 18.3398C16.1276 19.0558 15.3868 19.6902 14.6716 19.5254C14.118 19.4374 13.6836 18.9126 13.702 18.363C13.7004 17.8366 14.1036 17.347 14.6268 17.2358ZM17.3964 17.235C18.106 17.0398 18.8804 17.6238 18.8692 18.3486C18.9068 19.051 18.1892 19.6646 17.4884 19.5246C16.8284 19.4414 16.342 18.7286 16.526 18.0982C16.6188 17.679 16.9756 17.3382 17.3964 17.2342V17.235ZM12.0556 17.671C12.5468 17.5886 13.0076 18.127 12.8084 18.5862C12.6628 19.0758 11.9396 19.2078 11.6196 18.8086C11.2452 18.4246 11.5252 17.7238 12.0556 17.671ZM20.1788 17.6926C20.6172 17.5118 21.1548 17.8846 21.1212 18.3526C21.1388 18.867 20.4748 19.2222 20.0468 18.9214C19.5612 18.6518 19.65 17.8574 20.1788 17.6926ZM22.4492 19.9326C22.278 19.6182 22.5892 19.2014 22.9452 19.2598C23.1212 19.2566 23.2452 19.3934 23.358 19.5086C23.3812 19.695 23.4204 19.9174 23.2628 20.0606C23.0492 20.327 22.5652 20.251 22.4492 19.9326ZM9.43477 19.347C9.76677 19.1302 10.2444 19.4542 10.1692 19.835C10.1292 20.1734 9.69717 20.3662 9.41317 20.1742C9.10757 20.0006 9.11877 19.5054 9.43477 19.347ZM15.9892 20.0534C16.4236 19.8654 16.9772 20.2374 16.9356 20.7078C16.9676 21.2278 16.2836 21.5878 15.8588 21.2758C15.3868 21.0078 15.466 20.219 15.9892 20.0534ZM12.954 20.7502C13.3236 20.559 13.8196 20.8894 13.786 21.2974C13.7972 21.6318 13.466 21.9166 13.13 21.867C12.8524 21.8614 12.6716 21.6158 12.582 21.383C12.5868 21.1294 12.6932 20.847 12.954 20.751V20.7502ZM19.1028 20.7566C19.4836 20.5246 20.0244 20.8574 19.9884 21.2926C19.998 21.7486 19.3868 22.0398 19.0324 21.7406C18.69 21.5062 18.7316 20.943 19.1028 20.7566ZM20.1724 23.3566C20.0028 23.1054 20.202 22.8022 20.4764 22.7446C20.698 22.7886 20.9324 22.9526 20.8852 23.2038C20.8532 23.5454 20.346 23.6494 20.1724 23.3574V23.3566ZM11.6836 23.1382C11.7508 22.9382 11.914 22.7406 12.1532 22.7926C12.5012 22.8166 12.6044 23.3334 12.2996 23.4926C12.026 23.6742 11.7076 23.4254 11.6836 23.1382ZM15.7796 23.3678C15.846 23.0718 16.234 22.9286 16.49 23.0854C16.6596 23.1574 16.7092 23.343 16.7524 23.5014C16.7295 23.5837 16.7082 23.6664 16.6884 23.7494C16.5836 23.871 16.4484 23.9934 16.274 23.9894C15.95 24.027 15.6572 23.6662 15.7788 23.3678H15.7796Z" fill="black"/>
</g>
<path d="M16.066 8.04864C16.4492 7.85104 16.9172 8.30784 16.714 8.68464C16.5948 8.99184 16.146 9.07344 15.9172 8.83904C15.6748 8.61504 15.754 8.17024 16.066 8.04784V8.04864ZM11.942 8.48544C12.1748 8.39104 12.47 8.60064 12.446 8.85104C12.47 9.12144 12.134 9.32144 11.8964 9.19264C11.582 9.07264 11.618 8.57024 11.942 8.48544ZM20.3884 9.19984C20.0244 9.15664 19.9668 8.59344 20.3164 8.47984C20.5884 8.35024 20.838 8.59424 20.878 8.84784C20.8204 9.06384 20.6364 9.26224 20.3884 9.19984ZM12.8804 10.2118C13.27 9.96944 13.8252 10.3302 13.7652 10.7758C13.7452 11.2246 13.1388 11.4854 12.7964 11.1814C12.4652 10.943 12.5156 10.3958 12.8804 10.2118ZM18.8244 10.4694C18.998 10.0294 19.702 10.015 19.8996 10.4438C20.0956 10.7774 19.8548 11.191 19.5068 11.3046C19.0452 11.3894 18.6076 10.8982 18.8244 10.4694ZM15.5692 11.2798C15.5652 10.9006 15.9156 10.619 16.2812 10.5926C16.5244 10.6406 16.7884 10.7422 16.8924 10.983C17.0868 11.3158 16.914 11.7726 16.5644 11.9254C16.4044 12.0134 16.214 11.9806 16.0396 11.9702C15.7732 11.8422 15.5484 11.5886 15.5692 11.2798ZM9.43637 11.8318C9.79237 11.6158 10.2724 12.0078 10.1372 12.3886C10.0636 12.7174 9.61397 12.851 9.35717 12.6414C9.08277 12.4446 9.12597 11.9718 9.43717 11.831L9.43637 11.8318ZM22.606 11.8302C22.9076 11.5998 23.406 11.8646 23.3692 12.239C23.39 12.5806 22.9588 12.839 22.6596 12.663C22.33 12.5166 22.2956 12.0174 22.606 11.831V11.8302ZM17.294 12.511C17.7916 12.335 18.3836 12.5454 18.6668 12.983C19.0412 13.5166 18.8428 14.3294 18.2612 14.6358C17.6596 14.9982 16.7804 14.6918 16.5572 14.0294C16.3052 13.4374 16.6732 12.6966 17.2932 12.511H17.294ZM14.3716 12.5694C14.9236 12.3134 15.6668 12.5278 15.9332 13.083C16.2468 13.6238 16.0044 14.3766 15.4436 14.6558C14.882 14.9702 14.0892 14.7318 13.818 14.1518C13.5132 13.5902 13.7836 12.8278 14.3716 12.5694ZM11.446 13.5526C11.4884 13.203 11.8236 12.975 12.162 12.951C12.3385 12.9697 12.5034 13.0476 12.6298 13.1722C12.7562 13.2967 12.8367 13.4605 12.858 13.6366C12.834 13.9966 12.5516 14.347 12.1644 14.3454C11.738 14.3814 11.3644 13.9638 11.446 13.5526ZM20.0876 13.0278C20.5252 12.7774 21.1324 13.1414 21.1132 13.6358C21.1428 14.1598 20.4708 14.5286 20.0356 14.2214C19.5828 13.9654 19.618 13.2454 20.0876 13.0278ZM13.1836 14.8734C13.694 14.735 14.2796 14.9718 14.53 15.4342C14.8044 15.8998 14.6924 16.5462 14.266 16.8886C13.718 17.3894 12.7092 17.1878 12.418 16.5046C12.0828 15.8782 12.49 15.0382 13.1828 14.8726L13.1836 14.8734ZM18.7252 14.871C19.222 14.731 19.806 14.919 20.0732 15.3646C20.4268 15.8742 20.258 16.635 19.7324 16.963C19.1804 17.3446 18.3276 17.1446 18.0236 16.5478C17.6556 15.931 18.026 15.059 18.7252 14.871ZM9.89317 15.4518C10.3348 15.2878 10.8244 15.767 10.6452 16.1982C10.5364 16.5902 9.97397 16.7358 9.68357 16.4462C9.34357 16.1742 9.46917 15.5702 9.89317 15.4518ZM21.8684 16.0774C21.8601 15.9013 21.9217 15.7291 22.0397 15.5981C22.1578 15.4672 22.3228 15.3882 22.4988 15.3782C22.8012 15.4262 23.0956 15.6662 23.0716 15.9902C23.0996 16.4182 22.5756 16.7086 22.2044 16.5078C22.0308 16.4206 21.942 16.2454 21.8684 16.0774ZM7.72117 15.6646C7.98677 15.5502 8.31557 15.7766 8.25477 16.067C8.24037 16.3958 7.74677 16.523 7.56597 16.2478C7.40597 16.0566 7.50197 15.763 7.72117 15.6638V15.6646ZM24.4804 15.6574C24.6676 15.527 24.9684 15.6206 25.042 15.8358C25.1676 16.071 24.9372 16.3926 24.6684 16.3534C24.2908 16.387 24.1692 15.8214 24.4804 15.6574ZM14.6268 17.2358C15.326 17.0574 16.078 17.631 16.0828 18.3398C16.1276 19.0558 15.3868 19.6902 14.6716 19.5254C14.118 19.4374 13.6836 18.9126 13.702 18.363C13.7004 17.8366 14.1036 17.347 14.6268 17.2358ZM17.3964 17.235C18.106 17.0398 18.8804 17.6238 18.8692 18.3486C18.9068 19.051 18.1892 19.6646 17.4884 19.5246C16.8284 19.4414 16.342 18.7286 16.526 18.0982C16.6188 17.679 16.9756 17.3382 17.3964 17.2342V17.235ZM12.0556 17.671C12.5468 17.5886 13.0076 18.127 12.8084 18.5862C12.6628 19.0758 11.9396 19.2078 11.6196 18.8086C11.2452 18.4246 11.5252 17.7238 12.0556 17.671ZM20.1788 17.6926C20.6172 17.5118 21.1548 17.8846 21.1212 18.3526C21.1388 18.867 20.4748 19.2222 20.0468 18.9214C19.5612 18.6518 19.65 17.8574 20.1788 17.6926ZM22.4492 19.9326C22.278 19.6182 22.5892 19.2014 22.9452 19.2598C23.1212 19.2566 23.2452 19.3934 23.358 19.5086C23.3812 19.695 23.4204 19.9174 23.2628 20.0606C23.0492 20.327 22.5652 20.251 22.4492 19.9326ZM9.43477 19.347C9.76677 19.1302 10.2444 19.4542 10.1692 19.835C10.1292 20.1734 9.69717 20.3662 9.41317 20.1742C9.10757 20.0006 9.11877 19.5054 9.43477 19.347ZM15.9892 20.0534C16.4236 19.8654 16.9772 20.2374 16.9356 20.7078C16.9676 21.2278 16.2836 21.5878 15.8588 21.2758C15.3868 21.0078 15.466 20.219 15.9892 20.0534ZM12.954 20.7502C13.3236 20.559 13.8196 20.8894 13.786 21.2974C13.7972 21.6318 13.466 21.9166 13.13 21.867C12.8524 21.8614 12.6716 21.6158 12.582 21.383C12.5868 21.1294 12.6932 20.847 12.954 20.751V20.7502ZM19.1028 20.7566C19.4836 20.5246 20.0244 20.8574 19.9884 21.2926C19.998 21.7486 19.3868 22.0398 19.0324 21.7406C18.69 21.5062 18.7316 20.943 19.1028 20.7566ZM20.1724 23.3566C20.0028 23.1054 20.202 22.8022 20.4764 22.7446C20.698 22.7886 20.9324 22.9526 20.8852 23.2038C20.8532 23.5454 20.346 23.6494 20.1724 23.3574V23.3566ZM11.6836 23.1382C11.7508 22.9382 11.914 22.7406 12.1532 22.7926C12.5012 22.8166 12.6044 23.3334 12.2996 23.4926C12.026 23.6742 11.7076 23.4254 11.6836 23.1382ZM15.7796 23.3678C15.846 23.0718 16.234 22.9286 16.49 23.0854C16.6596 23.1574 16.7092 23.343 16.7524 23.5014C16.7295 23.5837 16.7082 23.6664 16.6884 23.7494C16.5836 23.871 16.4484 23.9934 16.274 23.9894C15.95 24.027 15.6572 23.6662 15.7788 23.3678H15.7796Z" fill="white"/>
</g>
<defs>
<filter id="filter0_d" x="6.48633" y="7.50098" width="19.5909" height="17.9912" filterUnits="userSpaceOnUse" color-interpolation-filters="sRGB">
<feFlood flood-opacity="0" result="BackgroundImageFix"/>
<feColorMatrix in="SourceAlpha" type="matrix" values="0 0 0 0 0 0 0 0 0 0 0 0 0 0 0 0 0 0 127 0" result="hardAlpha"/>
<feOffset dy="0.5"/>
<feGaussianBlur stdDeviation="0.5"/>
<feColorMatrix type="matrix" values="0 0 0 0 0 0 0 0 0 0 0 0 0 0 0 0 0 0 0.204257 0"/>
<feBlend mode="normal" in2="BackgroundImageFix" result="effect1_dropShadow"/>
<feBlend mode="normal" in="SourceGraphic" in2="effect1_dropShadow" result="shape"/>
</filter>
<clipPath id="clip0">
<rect width="25.6" height="25.6" fill="white" transform="translate(3.48633 3.2002)"/>
</clipPath>
</defs>
</svg>
