<svg width="40" height="40" viewBox="0 0 40 40" fill="none" xmlns="http://www.w3.org/2000/svg">
<path fill-rule="evenodd" clip-rule="evenodd" d="M16.6215 0.85942C18.7281 -0.286473 21.272 -0.286474 23.3786 0.85942L35.5914 7.50256C37.8669 8.74033 39.2834 11.1233 39.2834 13.7137V26.2863C39.2834 28.8767 37.8669 31.2597 35.5914 32.4974L23.3786 39.1406C21.272 40.2865 18.7281 40.2865 16.6215 39.1406L4.4087 32.4974C2.13318 31.2597 0.716675 28.8767 0.716675 26.2863L0.716675 13.7137C0.716675 11.1233 2.13318 8.74033 4.4087 7.50256L16.6215 0.85942Z" fill="#2A5ADA"/>
<path d="M20 36C28.8366 36 36 28.8366 36 20C36 11.1634 28.8366 4 20 4C11.1634 4 4 11.1634 4 20C4 28.8366 11.1634 36 20 36Z" fill="#2A5ADA"/>
<path d="M19.5 10L17.701 11.055L12.8 13.945L11 15V25L12.799 26.055L17.746 28.945L19.545 30L21.344 28.945L26.201 26.055L28 25V15L26.201 13.945L21.299 11.055L19.5 10ZM14.598 22.89V17.11L19.5 14.22L24.402 17.11V22.89L19.5 25.78L14.598 22.89Z" fill="white"/>
</svg>
