<svg width="33" height="32" viewBox="0 0 33 32" fill="none" xmlns="http://www.w3.org/2000/svg">
<path fill-rule="evenodd" clip-rule="evenodd" d="M13.5832 0.687536C15.2685 -0.229179 17.3036 -0.229179 18.9889 0.687536L28.7592 6.00205C30.5796 6.99226 31.7128 8.89867 31.7128 10.971V21.029C31.7128 23.1013 30.5796 25.0077 28.7592 25.998L18.9889 31.3125C17.3036 32.2292 15.2685 32.2292 13.5832 31.3125L3.813 25.998C1.99258 25.0077 0.859375 23.1013 0.859375 21.029L0.859375 10.971C0.859375 8.89867 1.99258 6.99226 3.813 6.00205L13.5832 0.687536Z" fill="black"/>
<g clip-path="url(#clip0)">
<path d="M16.2863 28.8002C23.3556 28.8002 29.0863 23.0694 29.0863 16.0002C29.0863 8.93095 23.3556 3.2002 16.2863 3.2002C9.21708 3.2002 3.48633 8.93095 3.48633 16.0002C3.48633 23.0694 9.21708 28.8002 16.2863 28.8002Z" fill="black"/>
<path d="M11.8659 12.789L15.9571 25.6346L9.88672 21.8314L11.8659 12.789L15.9571 7.2002V11.1202L9.88672 21.8314H22.0331L15.9627 11.1202V7.2002L20.0531 12.789L22.0331 21.8314L15.9627 25.6346L20.0531 12.789" stroke="white" stroke-width="0.64" stroke-linecap="round" stroke-linejoin="round"/>
</g>
<defs>
<clipPath id="clip0">
<rect width="25.6" height="25.6" fill="white" transform="translate(3.48633 3.2002)"/>
</clipPath>
</defs>
</svg>
