<svg width="41" height="40" viewBox="0 0 41 40" fill="none" xmlns="http://www.w3.org/2000/svg">
<path fill-rule="evenodd" clip-rule="evenodd" d="M17.2212 0.85942C19.3279 -0.286473 21.8717 -0.286474 23.9783 0.85942L36.1912 7.50256C38.4667 8.74033 39.8832 11.1233 39.8832 13.7137V26.2863C39.8832 28.8767 38.4667 31.2597 36.1912 32.4974L23.9783 39.1406C21.8717 40.2865 19.3279 40.2865 17.2212 39.1406L5.00844 32.4974C2.73291 31.2597 1.31641 28.8767 1.31641 26.2863L1.31641 13.7137C1.31641 11.1233 2.73291 8.74033 5.00843 7.50256L17.2212 0.85942Z" fill="#767DFF"/>
<g clip-path="url(#clip0)">
<path d="M20.5996 36C29.4362 36 36.5996 28.8366 36.5996 20C36.5996 11.1634 29.4362 4 20.5996 4C11.7631 4 4.59961 11.1634 4.59961 20C4.59961 28.8366 11.7631 36 20.5996 36Z" fill="#767DFF"/>
<path fill-rule="evenodd" clip-rule="evenodd" d="M18.3755 10H22.8355C22.99 9.99992 23.1418 10.041 23.2752 10.1191C23.4086 10.1971 23.5188 10.3092 23.5945 10.444L30.5005 22.763C30.5732 22.8929 30.6114 23.0392 30.6114 23.188C30.6114 23.3368 30.5732 23.4831 30.5005 23.613L28.2905 27.555C28.215 27.6898 28.105 27.8021 27.9718 27.8803C27.8386 27.9585 27.687 27.9998 27.5325 28H13.6785C13.5238 28 13.372 27.9587 13.2386 27.8805C13.1052 27.8023 12.995 27.6899 12.9195 27.555L10.7105 23.613C10.6378 23.4831 10.5996 23.3368 10.5996 23.188C10.5996 23.0392 10.6378 22.8929 10.7105 22.763L17.6165 10.444C17.6922 10.3092 17.8024 10.1971 17.9358 10.1191C18.0692 10.041 18.2209 9.99992 18.3755 10ZM20.6055 14.901L15.9525 23.188H25.2585L20.6055 14.901Z" fill="white"/>
</g>
<defs>
<clipPath id="clip0">
<rect width="32" height="32" fill="white" transform="translate(4.59961 4)"/>
</clipPath>
</defs>
</svg>
