<svg width="40" height="40" viewBox="0 0 40 40" fill="none" xmlns="http://www.w3.org/2000/svg">
<path fill-rule="evenodd" clip-rule="evenodd" d="M16.6214 0.85942C18.728 -0.286473 21.2719 -0.286474 23.3785 0.85942L35.5913 7.50256C37.8668 8.74033 39.2833 11.1233 39.2833 13.7137V26.2863C39.2833 28.8767 37.8668 31.2597 35.5913 32.4974L23.3785 39.1406C21.2719 40.2865 18.728 40.2865 16.6214 39.1406L4.40858 32.4974C2.13306 31.2597 0.716553 28.8767 0.716553 26.2863L0.716553 13.7137C0.716553 11.1233 2.13306 8.74033 4.40858 7.50256L16.6214 0.85942Z" fill="#00ACED"/>
<path d="M20 36C28.8366 36 36 28.8366 36 20C36 11.1634 28.8366 4 20 4C11.1634 4 4 11.1634 4 20C4 28.8366 11.1634 36 20 36Z" fill="#00ACED"/>
<path fill-rule="evenodd" clip-rule="evenodd" d="M10 14V18.076L19.895 23.791L26.315 20.076V23.391L29.771 25.429V14L19.886 19.715L10 14Z" fill="white"/>
<path opacity="0.7" fill-rule="evenodd" clip-rule="evenodd" d="M19.886 8L10 13.714V25.143L19.886 30.857L29.743 25.143L26.248 23.105L19.886 26.781L13.496 23.105V15.752L19.886 12.076L26.248 15.752L29.743 13.714L19.886 8Z" fill="white"/>
</svg>
