<svg width="32" height="32" viewBox="0 0 32 32" fill="none" xmlns="http://www.w3.org/2000/svg">
<path fill-rule="evenodd" clip-rule="evenodd" d="M13.2981 0.687536C14.9834 -0.229179 17.0185 -0.229179 18.7038 0.687536L28.474 6.00205C30.2944 6.99226 31.4276 8.89867 31.4276 10.971V21.029C31.4276 23.1013 30.2944 25.0077 28.474 25.998L18.7038 31.3125C17.0185 32.2292 14.9834 32.2292 13.2981 31.3125L3.52784 25.998C1.70742 25.0077 0.574219 23.1013 0.574219 21.029L0.574219 10.971C0.574219 8.89867 1.70742 6.99226 3.52784 6.00205L13.2981 0.687536Z" fill="#32A4BE"/>
<g clip-path="url(#clip0)">
<path d="M15.9992 28.8002C23.0685 28.8002 28.7992 23.0694 28.7992 16.0002C28.7992 8.93095 23.0685 3.2002 15.9992 3.2002C8.92997 3.2002 3.19922 8.93095 3.19922 16.0002C3.19922 23.0694 8.92997 28.8002 15.9992 28.8002Z" fill="#32A4BE"/>
<path fill-rule="evenodd" clip-rule="evenodd" d="M23.1988 22.5734L11.1804 10.8166C12.5116 9.51808 14.2992 8.79388 16.1588 8.79984C20.0468 8.79984 23.1988 11.883 23.1988 15.687V22.5734ZM8.79883 9.42624L20.8172 21.183C19.4861 22.4816 17.6984 23.2058 15.8388 23.1998C11.9508 23.1998 8.79883 20.1166 8.79883 16.3126V9.42624Z" fill="white"/>
</g>
<defs>
<clipPath id="clip0">
<rect width="25.6" height="25.6" fill="white" transform="translate(3.19922 3.2002)"/>
</clipPath>
</defs>
</svg>
