<svg width="33" height="32" viewBox="0 0 33 32" fill="none" xmlns="http://www.w3.org/2000/svg">
<path fill-rule="evenodd" clip-rule="evenodd" d="M13.5832 0.687536C15.2685 -0.229179 17.3036 -0.229179 18.9889 0.687536L28.7592 6.00205C30.5796 6.99226 31.7128 8.89867 31.7128 10.971V21.029C31.7128 23.1013 30.5796 25.0077 28.7592 25.998L18.9889 31.3125C17.3036 32.2292 15.2685 32.2292 13.5832 31.3125L3.813 25.998C1.99258 25.0077 0.859375 23.1013 0.859375 21.029L0.859375 10.971C0.859375 8.89867 1.99258 6.99226 3.813 6.00205L13.5832 0.687536Z" fill="#AF60ED"/>
<g clip-path="url(#clip0)">
<path d="M16.2863 28.8002C23.3556 28.8002 29.0863 23.0694 29.0863 16.0002C29.0863 8.93095 23.3556 3.2002 16.2863 3.2002C9.21708 3.2002 3.48633 8.93095 3.48633 16.0002C3.48633 23.0694 9.21708 28.8002 16.2863 28.8002Z" fill="#AF60ED"/>
<path d="M13.2824 7.26672C13.0544 7.23152 13.0448 7.22672 13.152 7.21072C13.3576 7.17872 13.844 7.22272 14.1792 7.30192C14.9608 7.48832 15.672 7.96432 16.432 8.80992L16.6336 9.03392L16.9216 8.98832C18.1376 8.79232 19.3752 8.94832 20.4096 9.42592C20.6944 9.55712 21.1432 9.81872 21.1992 9.88672C21.2176 9.90752 21.2504 10.0459 21.272 10.1931C21.3488 10.7027 21.3104 11.0931 21.1552 11.3851C21.0704 11.5435 21.0656 11.5931 21.1224 11.7291C21.1494 11.7853 21.1916 11.8328 21.2442 11.8661C21.2968 11.8995 21.3577 11.9175 21.42 11.9179C21.6776 11.9179 21.9544 11.5019 22.0824 10.9235L22.1336 10.6939L22.2344 10.8083C22.788 11.4355 23.2224 12.2907 23.2968 12.8987L23.3168 13.0579L23.2232 12.9139C23.0632 12.6659 22.9032 12.4963 22.6968 12.3595C22.3256 12.1139 21.9328 12.0307 20.8928 11.9755C19.9536 11.9259 19.4216 11.8459 18.8952 11.6739C17.9984 11.3819 17.5464 10.9923 16.4808 9.59472C16.008 8.97392 15.7152 8.63072 15.4248 8.35472C14.7632 7.72592 14.1136 7.39632 13.2824 7.26672Z" fill="white"/>
<path d="M21.4678 9.12258C21.4918 8.70658 21.5478 8.43218 21.6614 8.18178C21.7062 8.08258 21.7486 8.00098 21.755 8.00098C21.7479 8.05713 21.7331 8.11205 21.711 8.16418C21.6286 8.40738 21.615 8.74018 21.6718 9.12658C21.7438 9.61778 21.7854 9.68818 22.3038 10.2186C22.5478 10.4674 22.831 10.781 22.9334 10.9162L23.1198 11.161L22.9334 10.9858C22.7054 10.7722 22.1806 10.3538 22.0646 10.2946C21.987 10.2546 21.975 10.2554 21.927 10.3026C21.883 10.3474 21.8734 10.413 21.8678 10.7258C21.8582 11.2122 21.7918 11.5258 21.631 11.8378C21.5446 12.0058 21.531 11.9706 21.6094 11.7794C21.6678 11.637 21.6734 11.5746 21.6734 11.1034C21.6734 10.1562 21.5606 9.92898 20.9006 9.53858C20.702 9.42334 20.4981 9.31762 20.2894 9.22178C20.1864 9.18043 20.0864 9.13177 19.9902 9.07618C20.0086 9.05778 20.6518 9.24498 20.9102 9.34498C21.2958 9.49298 21.359 9.51218 21.4062 9.49378C21.4374 9.48178 21.4526 9.39058 21.4678 9.12258ZM13.7822 10.7426C13.319 10.105 13.0326 9.12658 13.0942 8.39538L13.1134 8.16898L13.219 8.18818C13.4174 8.22418 13.759 8.35138 13.919 8.44898C14.3574 8.71538 14.5478 9.06658 14.7406 9.96738C14.7974 10.2314 14.8718 10.5298 14.9062 10.6314C14.9606 10.7938 15.1686 11.1738 15.3382 11.421C15.4598 11.5986 15.3782 11.6826 15.1094 11.6586C14.6982 11.621 14.1414 11.237 13.7822 10.7426ZM20.9062 15.4906C18.7406 14.6186 17.9782 13.8618 17.9782 12.585C17.9782 12.397 17.9846 12.2434 17.9918 12.2434C17.9998 12.2434 18.0838 12.305 18.1782 12.381C18.6174 12.733 19.1094 12.8834 20.4702 13.0818C21.271 13.1994 21.7222 13.2938 22.1382 13.4314C23.4598 13.8698 24.2774 14.7594 24.4726 15.9706C24.5286 16.3226 24.4958 16.9826 24.4038 17.3306C24.3318 17.6058 24.1102 18.101 24.0518 18.1202C24.0358 18.125 24.0198 18.0634 24.015 17.9778C23.9926 17.5234 23.763 17.0802 23.3766 16.7482C22.9374 16.3714 22.3478 16.0706 20.9054 15.4906H20.9062ZM19.3862 15.8522C19.3607 15.6977 19.3257 15.5448 19.2814 15.3946L19.2254 15.2298L19.3286 15.345C19.4702 15.505 19.583 15.7082 19.6774 15.9802C19.7502 16.1874 19.7582 16.249 19.7574 16.5858C19.7574 16.917 19.7486 16.9858 19.6814 17.173C19.588 17.4475 19.4316 17.6962 19.2246 17.8994C18.8286 18.3026 18.3206 18.525 17.5862 18.6178C17.4582 18.6338 17.087 18.661 16.7598 18.6778C15.9358 18.721 15.3942 18.809 14.907 18.9802C14.8631 18.9999 14.8159 19.0113 14.7678 19.0138C14.7486 18.9938 15.0798 18.7962 15.3542 18.6642C15.7406 18.4778 16.1246 18.3762 16.9862 18.233C17.4118 18.1618 17.8518 18.0762 17.963 18.0418C19.0174 17.7186 19.559 16.885 19.3854 15.8522H19.3862Z" fill="white"/>
<path d="M19.8591 17.8818C19.5711 17.2634 19.5055 16.6658 19.6631 16.109C19.6799 16.0498 19.7071 16.001 19.7231 16.001C19.7773 16.0206 19.8282 16.0481 19.8743 16.0826C20.0071 16.1722 20.2727 16.3226 20.9807 16.7082C21.8647 17.1906 22.3687 17.5642 22.7119 17.9898C23.0119 18.3634 23.1975 18.789 23.2871 19.3074C23.3375 19.601 23.3079 20.3074 23.2327 20.6034C22.9951 21.5362 22.4423 22.269 21.6551 22.6962C21.5808 22.7392 21.5039 22.7774 21.4247 22.8106C21.4135 22.8106 21.4551 22.7042 21.5183 22.573C21.7823 22.0194 21.8135 21.4802 21.6127 20.8802C21.4903 20.513 21.2399 20.0642 20.7351 19.3074C20.1479 18.4274 20.0039 18.1922 19.8591 17.8818ZM11.7255 21.2186C12.5295 20.5402 13.5287 20.0586 14.4399 19.9106C14.8319 19.8466 15.4863 19.8722 15.8495 19.965C16.4319 20.1138 16.9535 20.4482 17.2247 20.8458C17.4887 21.2346 17.6031 21.5738 17.7207 22.3274C17.7687 22.625 17.8191 22.9234 17.8343 22.9914C17.9223 23.3818 18.0959 23.6946 18.3103 23.8514C18.6503 24.1002 19.2367 24.1154 19.8127 23.8914C19.8729 23.8638 19.9364 23.8439 20.0015 23.8322C20.0223 23.853 19.7327 24.0474 19.5279 24.1498C19.2863 24.2791 19.0156 24.3446 18.7415 24.3402C18.2135 24.3402 17.7751 24.0722 17.4095 23.5242C17.3375 23.4162 17.1759 23.0938 17.0495 22.8066C16.6639 21.9266 16.4735 21.6578 16.0255 21.3642C15.6343 21.1082 15.1311 21.0626 14.7527 21.2482C14.2551 21.4922 14.1167 22.1282 14.4727 22.5306C14.6143 22.6906 14.8783 22.829 15.0943 22.8554C15.1886 22.8679 15.2844 22.86 15.3753 22.8322C15.4662 22.8045 15.5501 22.7576 15.6213 22.6946C15.6925 22.6317 15.7494 22.5542 15.7881 22.4674C15.8268 22.3805 15.8464 22.2864 15.8455 22.1914C15.8455 21.9258 15.7431 21.7754 15.4871 21.6594C15.1375 21.5018 14.7615 21.6858 14.7631 22.0146C14.7639 22.1546 14.8247 22.2426 14.9655 22.3066C15.0559 22.3466 15.0575 22.3506 14.9839 22.3354C14.6631 22.2682 14.5879 21.8818 14.8463 21.625C15.1559 21.3162 15.7967 21.4522 16.0167 21.873C16.1095 22.0498 16.1199 22.4026 16.0391 22.6154C15.8591 23.0914 15.3327 23.341 14.7991 23.205C14.4359 23.1122 14.2879 23.0122 13.8503 22.561C13.0895 21.777 12.7943 21.625 11.6967 21.4538L11.4863 21.421L11.7263 21.2186H11.7255Z" fill="white"/>
<path fill-rule="evenodd" clip-rule="evenodd" d="M8.28613 5.73179L8.36293 5.82539C11.3293 9.45739 12.8621 11.3422 12.9597 11.4766C13.1197 11.699 13.0597 11.8982 12.7845 12.055C12.6317 12.1422 12.3165 12.2302 12.1597 12.2302C11.9813 12.2302 11.7805 12.1446 11.6341 12.0062C11.5309 11.9078 11.1141 11.2854 10.1517 9.79179C9.70106 9.08586 9.24451 8.3837 8.78213 7.68539C8.74293 7.64859 8.74373 7.64939 10.0765 10.0342C10.9133 11.5318 11.1965 12.0606 11.1965 12.1318C11.1965 12.2758 11.1565 12.351 10.9789 12.5494C10.6829 12.8798 10.5509 13.251 10.4549 14.019C10.3477 14.8806 10.0469 15.4886 9.21173 16.5294C8.72373 17.139 8.64373 17.251 8.51973 17.4966C8.36453 17.8054 8.32213 17.979 8.30453 18.3694C8.28613 18.7822 8.32213 19.0494 8.44853 19.4438C8.55893 19.7894 8.67413 20.0182 8.96853 20.4742C9.22293 20.8686 9.36933 21.1614 9.36933 21.2758C9.36933 21.367 9.38693 21.367 9.78133 21.2782C10.7245 21.0654 11.4901 20.6902 11.9213 20.231C12.1877 19.947 12.2501 19.7902 12.2525 19.4006C12.2533 19.1462 12.2445 19.0926 12.1757 18.9462C12.0637 18.7078 11.8597 18.5094 11.4101 18.2022C10.8205 17.799 10.5693 17.4742 10.4997 17.0286C10.4421 16.663 10.5085 16.4046 10.8349 15.7214C11.1717 15.0142 11.2557 14.7134 11.3125 14.0006C11.3485 13.5398 11.3989 13.3582 11.5317 13.2126C11.6693 13.0606 11.7941 13.0086 12.1357 12.9622C12.6925 12.8862 13.0469 12.7422 13.3381 12.4742C13.5909 12.2406 13.6965 12.0158 13.7125 11.6782L13.7253 11.4222L13.5837 11.2574C13.3805 11.0206 11.6997 9.16619 8.54053 5.69259L8.45573 5.60059L8.28613 5.73259V5.73179ZM9.65733 18.8374C9.71315 18.7386 9.72981 18.6224 9.70403 18.5119C9.67825 18.4013 9.61191 18.3045 9.51813 18.2406C9.33573 18.119 9.05173 18.1766 9.05173 18.335C9.05173 18.383 9.07813 18.4182 9.13813 18.4494C9.23973 18.5014 9.24693 18.5606 9.16773 18.6798C9.08693 18.8014 9.09333 18.9086 9.18613 18.9814C9.33493 19.0982 9.54613 19.0334 9.65813 18.8374H9.65733ZM14.0765 13.0966C13.8149 13.1766 13.5613 13.4542 13.4821 13.7446C13.4341 13.9214 13.4613 14.2326 13.5333 14.3286C13.6493 14.4838 13.7621 14.5246 14.0661 14.5222C14.6613 14.5182 15.1781 14.263 15.2389 13.9438C15.2885 13.6822 15.0605 13.3198 14.7477 13.1598C14.5861 13.0782 14.2429 13.0454 14.0765 13.0966ZM14.7725 13.6406C14.8645 13.5102 14.8237 13.3686 14.6685 13.2742C14.3709 13.0926 13.9213 13.2422 13.9213 13.5238C13.9213 13.663 14.1557 13.8158 14.3701 13.8158C14.5141 13.8158 14.7093 13.7302 14.7725 13.6406Z" fill="white"/>
</g>
<defs>
<clipPath id="clip0">
<rect width="25.6" height="25.6" fill="white" transform="translate(3.48633 3.2002)"/>
</clipPath>
</defs>
</svg>
