<svg width="24" height="24" viewBox="0 0 24 24" fill="none" xmlns="http://www.w3.org/2000/svg">
<path fill-rule="evenodd" clip-rule="evenodd" d="M13.3137 22.3726C12.8284 22.1716 12.4142 22 12 22C11.5858 22 11.1716 22.1716 10.6863 22.3726C10 22.6569 9.17157 23 8 23C5 23 2.99997 17.9998 3 14C3.00003 10.0002 4 6 8 6C9.0718 6 9.71281 6.28719 10.3078 6.55375C10.8231 6.78461 11.3038 7 12 7C12.6962 7 13.1769 6.78461 13.6922 6.55375C14.2872 6.28719 14.9282 6 16 6C18.2181 6 19.5138 7.23009 20.2279 9.00809L20.2336 9.02233C20.3336 9.2727 20.422 9.53386 20.5 9.80393C20.5876 10.1074 20.6619 10.4221 20.7243 10.7454C20.7503 10.8801 20.6372 11 20.5 11C19.1193 11 18 12.1193 18 13.5C18 14.8807 19.1193 16 20.5 16C20.6754 16 20.8243 16.1495 20.7946 16.3224C20.7171 16.7724 20.6185 17.2208 20.5 17.6602C20.4696 17.773 20.4378 17.8853 20.4048 17.9968L20.4041 17.999C19.599 20.7152 18.028 23 16 23C14.8284 23 14 22.6569 13.3137 22.3726ZM12 20C11.1714 20 10.4155 20.3174 10.0073 20.4887C9.3592 20.7608 8.71303 21 8 21C7.70005 21 6.95842 20.6947 6.16385 19.1055C5.43774 17.6533 4.99999 15.7127 5 14C5.00001 12.1022 5.24783 10.4766 5.78887 9.39448C6.04525 8.88172 6.3359 8.5548 6.64068 8.35161C6.93294 8.15676 7.34999 8 8 8C8.34662 8 8.59033 8.04494 8.78421 8.10023C8.99677 8.16085 9.18406 8.24184 9.49009 8.37895L9.53985 8.40128C10.0616 8.63559 10.8731 9 12 9C13.1269 9 13.9384 8.63558 14.4602 8.40128L14.5099 8.37895C14.8159 8.24185 15.0032 8.16085 15.2158 8.10023C15.4097 8.04494 15.6534 8 16 8C16.7144 8 17.1538 8.18873 17.4605 8.42402C17.7602 8.65398 18.0486 9.01925 18.2966 9.57542C16.9259 10.3466 16 11.8152 16 13.5C16 15.2517 17.0008 16.7696 18.4618 17.5131C18.1105 18.6679 17.6292 19.6219 17.1142 20.2498C16.5826 20.898 16.1964 21 16 21C15.287 21 14.6408 20.7608 13.9927 20.4887C13.5845 20.3174 12.8286 20 12 20Z" fill="#FCFCFD"/>
<path d="M12 4.75C12 2.67893 13.6789 1 15.75 1C15.8881 1 16 1.11193 16 1.25C16 3.32107 14.3211 5 12.25 5C12.1119 5 12 4.88807 12 4.75Z" fill="#FCFCFD"/>
</svg>
