<svg width="16" height="16" viewBox="0 0 16 16" fill="none" xmlns="http://www.w3.org/2000/svg">
<path fill-rule="evenodd" clip-rule="evenodd" d="M1.61321 4.12423C1.3136 4.33824 1.24421 4.7546 1.45821 5.05421L4.79155 9.72088C4.98222 9.98782 5.33876 10.0764 5.63218 9.92967L10.456 7.51776L13.4582 11.7209C13.6722 12.0205 14.0886 12.0899 14.3882 11.8759C14.6878 11.6619 14.7572 11.2455 14.5432 10.9459L11.2099 6.27923C11.0192 6.01228 10.6626 5.92373 10.3692 6.07043L5.54542 8.48234L2.54319 4.27923C2.32919 3.97962 1.91282 3.91022 1.61321 4.12423Z" fill="#23262F"/>
<path d="M2 6.66699C0.89543 6.66699 0 5.77156 0 4.66699C0 3.56242 0.89543 2.66699 2 2.66699C3.10457 2.66699 4 3.56242 4 4.66699C4 5.77156 3.10457 6.66699 2 6.66699Z" fill="#777E91"/>
<path d="M10.6667 8.66699C9.5621 8.66699 8.66667 7.77156 8.66667 6.66699C8.66667 5.56242 9.5621 4.66699 10.6667 4.66699C11.7712 4.66699 12.6667 5.56242 12.6667 6.66699C12.6667 7.77156 11.7712 8.66699 10.6667 8.66699Z" fill="#777E91"/>
<path d="M14 13.3337C12.8954 13.3337 12 12.4382 12 11.3337C12 10.2291 12.8954 9.33366 14 9.33366C15.1046 9.33366 16 10.2291 16 11.3337C16 12.4382 15.1046 13.3337 14 13.3337Z" fill="#777E91"/>
<path d="M3.33333 9.33366C3.33333 10.4382 4.22876 11.3337 5.33333 11.3337C6.4379 11.3337 7.33333 10.4382 7.33333 9.33366C7.33333 8.22909 6.4379 7.33366 5.33333 7.33366C4.22876 7.33366 3.33333 8.22909 3.33333 9.33366Z" fill="#777E91"/>
</svg>
